<svg width="42" height="46" viewBox="0 0 42 46" fill="none" xmlns="http://www.w3.org/2000/svg">
<path d="M35.3487 5.69874C31.4654 2.0499 26.1986 -3.84468e-08 20.7068 0C15.215 3.84468e-08 9.94816 2.0499 6.06488 5.69874C2.1816 9.34759 4.0917e-08 14.2965 0 19.4567C-4.0917e-08 24.617 2.1816 29.5659 6.06488 33.2147L18.9254 45.3217C19.1522 45.5367 19.4221 45.7072 19.7195 45.8237C20.0169 45.9401 20.3358 46 20.658 46C20.9801 46 21.2991 45.9401 21.5965 45.8237C21.8939 45.7072 22.1638 45.5367 22.3906 45.3217L35.3487 33.1001C39.2158 29.4664 41.3883 24.5381 41.3883 19.3994C41.3883 14.2607 39.2158 9.33241 35.3487 5.69874ZM31.8591 29.8211L20.7068 40.3459L9.55454 29.8211C7.35128 27.7489 5.8513 25.1095 5.24419 22.2365C4.63708 19.3635 4.95012 16.3858 6.14372 13.6799C7.33732 10.974 9.35789 8.66141 11.95 7.03436C14.5422 5.40731 17.5895 4.5389 20.7068 4.5389C23.8241 4.5389 26.8714 5.40731 29.4636 7.03436C32.0557 8.66141 34.0763 10.974 35.2699 13.6799C36.4635 16.3858 36.7765 19.3635 36.1694 22.2365C35.5623 25.1095 34.0623 27.7489 31.8591 29.8211ZM13.3858 12.4172C11.4158 14.274 10.3096 16.789 10.3096 19.4109C10.3096 22.0328 11.4158 24.5477 13.3858 26.4045C14.8495 27.7821 16.7134 28.7229 18.7439 29.1089C20.7744 29.4948 22.881 29.3088 24.7994 28.574C26.7178 27.8393 28.3625 26.5886 29.5273 24.9788C30.6921 23.3691 31.325 21.472 31.3466 19.5255C31.3576 18.2259 31.0912 16.9373 30.563 15.7361C30.0349 14.5348 29.2558 13.4453 28.2718 12.5319C27.3046 11.6022 26.1514 10.8615 24.8783 10.3523C23.6053 9.84309 22.2377 9.57546 20.8542 9.5648C19.4707 9.55415 18.0986 9.80068 16.8169 10.2902C15.5351 10.7797 14.3691 11.5026 13.3858 12.4172ZM24.8309 23.1485C23.9062 24.0307 22.684 24.5836 21.3733 24.7129C20.0627 24.8421 18.7449 24.5395 17.6454 23.8568C16.5459 23.1742 15.7329 22.1538 15.3454 20.9703C14.9579 19.7867 15.02 18.5135 15.521 17.3682C16.022 16.2229 16.9309 15.2766 18.0922 14.6913C19.2535 14.1059 20.5952 13.9178 21.8878 14.159C23.1804 14.4003 24.3436 15.0559 25.1787 16.0139C26.0138 16.9718 26.4688 18.1726 26.466 19.4109C26.4305 20.8263 25.7985 22.1706 24.7089 23.1485H24.8309Z" fill="white"/>
</svg>
