<svg width="138" height="136" viewBox="0 0 138 136" fill="none" xmlns="http://www.w3.org/2000/svg">
<path d="M70.3649 42.8665L71.6987 46.2997L73.8519 43.3114L93.5759 15.9374L84.9742 48.5623L84.0352 52.1238L87.5336 50.9719L119.581 40.4193L93.4454 61.7575L90.5923 64.0869L94.0997 65.2112L126.229 75.5108L92.5428 77.4118L88.8654 77.6193L91.0421 80.5906L110.981 107.808L82.6112 89.5459L79.5142 87.5523L79.5287 91.2355L79.6617 124.975L67.4442 93.525L66.1104 90.0917L63.9572 93.08L44.2332 120.454L52.8349 87.8291L53.7739 84.2676L50.2755 85.4196L18.2284 95.9721L44.3637 74.634L47.2168 72.3046L43.7094 71.1802L11.5801 60.8806L45.2663 58.9796L48.9437 58.7721L46.767 55.8009L26.8278 28.5832L55.1979 46.8455L58.2949 48.8391L58.2804 45.1559L58.1474 11.4165L70.3649 42.8665Z" fill="white" stroke="#003642" stroke-width="4"/>
</svg>
